<svg width="265" height="54" viewBox="0 0 265 54" fill="none" xmlns="http://www.w3.org/2000/svg">
<path d="M0 0H265V54H0V0Z" fill="#646843"/>
<path d="M19.288 23.448C20.2373 23.448 21.0053 23.6667 21.592 24.104C22.1787 24.5307 22.472 25.1067 22.472 25.832C22.472 26.6533 22.1413 27.336 21.48 27.88C20.8293 28.4133 20.0773 28.7867 19.224 29C19.864 29.0107 20.4773 29.1333 21.064 29.368C21.6613 29.592 22.1467 29.9227 22.52 30.36C22.8933 30.7973 23.08 31.3253 23.08 31.944C23.08 32.6267 22.8773 33.2187 22.472 33.72C22.0667 34.2107 21.528 34.584 20.856 34.84C20.184 35.096 19.4587 35.224 18.68 35.224C17.7307 35.224 16.9413 35.032 16.312 34.648C15.8107 34.328 15.56 33.9493 15.56 33.512C15.56 33.2667 15.64 33.064 15.8 32.904C15.96 32.744 16.1627 32.664 16.408 32.664C16.664 32.664 16.872 32.744 17.032 32.904C17.2027 33.0533 17.288 33.2613 17.288 33.528C17.288 33.752 17.224 33.9333 17.096 34.072C16.9787 34.2107 16.8187 34.3013 16.616 34.344C16.7333 34.504 17 34.648 17.416 34.776C17.832 34.8933 18.2693 34.952 18.728 34.952C19.6453 34.952 20.3333 34.6907 20.792 34.168C21.2613 33.6453 21.496 32.9573 21.496 32.104C21.496 31.2507 21.272 30.552 20.824 30.008C20.3867 29.4533 19.768 29.1653 18.968 29.144C18.712 29.2827 18.4827 29.352 18.28 29.352C18.184 29.352 18.104 29.3307 18.04 29.288C17.976 29.2347 17.944 29.1653 17.944 29.08C17.944 29.0053 17.976 28.9467 18.04 28.904C18.104 28.8507 18.184 28.824 18.28 28.824C18.4507 28.824 18.6853 28.856 18.984 28.92C19.688 28.6853 20.1787 28.344 20.456 27.896C20.7333 27.4373 20.872 26.8133 20.872 26.024C20.872 25.2667 20.7333 24.7013 20.456 24.328C20.1787 23.944 19.7253 23.752 19.096 23.752C18.328 23.752 17.7253 24.056 17.288 24.664C16.8507 25.2613 16.6053 25.9813 16.552 26.824H16.184C16.184 25.2667 16.1573 24.1787 16.104 23.56H16.472C16.504 23.816 16.5467 23.9973 16.6 24.104C16.6533 24.2107 16.7333 24.264 16.84 24.264C16.9573 24.264 17.1333 24.1893 17.368 24.04C17.4107 24.008 17.5227 23.9387 17.704 23.832C17.896 23.7147 18.12 23.624 18.376 23.56C18.6427 23.4853 18.9467 23.448 19.288 23.448ZM35.7812 33.656C36.0693 34.3173 36.4373 34.6587 36.8853 34.68V35C36.4586 34.968 35.8879 34.952 35.1733 34.952C34.2559 34.952 33.5733 34.968 33.1252 35V34.68C33.5199 34.6587 33.8079 34.6053 33.9893 34.52C34.1813 34.4347 34.2773 34.2907 34.2773 34.088C34.2773 33.9173 34.2026 33.6667 34.0533 33.336L33.2373 31.512H29.3492L28.8052 32.712C28.6239 33.128 28.5332 33.4693 28.5332 33.736C28.5332 34.0133 28.6292 34.232 28.8212 34.392C29.0239 34.5413 29.3439 34.6373 29.7812 34.68V35C29.4612 34.968 28.9759 34.952 28.3252 34.952C27.6746 34.952 27.2106 34.968 26.9332 35V34.68C27.2212 34.6053 27.4666 34.4453 27.6692 34.2C27.8719 33.944 28.0639 33.608 28.2452 33.192L31.7812 25.192H32.0373L35.7812 33.656ZM33.1093 31.192L31.3012 27.128L29.4772 31.192H33.1093ZM43.4966 31.064V33.304C43.4966 33.7093 43.5286 34.0027 43.5926 34.184C43.6566 34.3653 43.774 34.488 43.9446 34.552C44.126 34.616 44.4086 34.6587 44.7926 34.68V35C44.302 34.968 43.6246 34.952 42.7606 34.952C41.8433 34.952 41.1606 34.968 40.7126 35V34.68C41.0966 34.6587 41.374 34.616 41.5446 34.552C41.726 34.488 41.8486 34.3653 41.9126 34.184C41.9766 34.0027 42.0086 33.7093 42.0086 33.304V26.968C42.0086 26.5627 41.9766 26.2693 41.9126 26.088C41.8486 25.9067 41.726 25.784 41.5446 25.72C41.374 25.656 41.0966 25.6133 40.7126 25.592V25.272C41.1606 25.304 41.8113 25.32 42.6646 25.32L44.3926 25.304C44.5953 25.2933 44.8246 25.288 45.0806 25.288C46.222 25.288 47.0966 25.5333 47.7046 26.024C48.3126 26.504 48.6166 27.1493 48.6166 27.96C48.6166 28.472 48.4886 28.9627 48.2326 29.432C47.9873 29.9013 47.5606 30.2907 46.9526 30.6C46.3553 30.9093 45.5606 31.064 44.5686 31.064H43.4966ZM44.6806 25.592C44.35 25.592 44.0993 25.6293 43.9286 25.704C43.7686 25.7787 43.6566 25.912 43.5926 26.104C43.5286 26.296 43.4966 26.584 43.4966 26.968V30.744H44.4086C45.39 30.744 46.0673 30.5093 46.4406 30.04C46.8246 29.5707 47.0166 28.936 47.0166 28.136C47.0166 27.272 46.8353 26.632 46.4726 26.216C46.11 25.8 45.5126 25.592 44.6806 25.592ZM60.7846 33.112C60.7846 33.6667 60.822 34.296 60.8966 35C60.2033 34.968 59.0353 34.952 57.3926 34.952C55.4193 34.952 53.926 34.968 52.9126 35V34.68C53.2966 34.6587 53.574 34.616 53.7446 34.552C53.926 34.488 54.0486 34.3653 54.1126 34.184C54.1766 34.0027 54.2086 33.7093 54.2086 33.304V26.968C54.2086 26.5627 54.1766 26.2693 54.1126 26.088C54.0486 25.9067 53.926 25.784 53.7446 25.72C53.574 25.656 53.2966 25.6133 52.9126 25.592V25.272C53.926 25.304 55.4193 25.32 57.3926 25.32C58.886 25.32 59.9473 25.304 60.5766 25.272C60.502 25.912 60.4646 26.488 60.4646 27C60.4646 27.416 60.4806 27.7467 60.5126 27.992H60.1446C60.07 27.1173 59.8833 26.5093 59.5846 26.168C59.2966 25.816 58.822 25.64 58.1606 25.64H56.9926C56.6086 25.64 56.326 25.672 56.1446 25.736C55.974 25.7893 55.8566 25.9067 55.7926 26.088C55.7286 26.2693 55.6966 26.5627 55.6966 26.968V29.944H57.0246C57.366 29.944 57.6273 29.8587 57.8086 29.688C57.99 29.5067 58.1126 29.3147 58.1766 29.112C58.2406 28.8987 58.2993 28.632 58.3526 28.312H58.7206C58.6886 28.6747 58.6726 29.0693 58.6726 29.496V30.104C58.6726 30.52 58.7046 31.1173 58.7686 31.896H58.4006C58.3366 31.384 58.214 30.984 58.0326 30.696C57.8513 30.408 57.5153 30.264 57.0246 30.264H55.6966V33.304C55.6966 33.7093 55.7286 34.0027 55.7926 34.184C55.8566 34.3653 55.974 34.488 56.1446 34.552C56.326 34.6053 56.6086 34.632 56.9926 34.632H58.1606C58.694 34.632 59.1153 34.5467 59.4246 34.376C59.734 34.2053 59.9686 33.9333 60.1286 33.56C60.2886 33.176 60.4006 32.6427 60.4646 31.96H60.8326C60.8006 32.248 60.7846 32.632 60.7846 33.112ZM72.9722 25.272C72.8976 26.0293 72.8602 26.712 72.8602 27.32C72.8602 27.8533 72.8762 28.2907 72.9082 28.632H72.5402C72.4549 27.8107 72.3482 27.2027 72.2202 26.808C72.0922 26.4027 71.8682 26.1093 71.5482 25.928C71.2282 25.736 70.7376 25.64 70.0762 25.64H69.7082C69.3242 25.64 69.0416 25.672 68.8602 25.736C68.6896 25.7893 68.5722 25.9067 68.5082 26.088C68.4442 26.2693 68.4122 26.5627 68.4122 26.968V33.304C68.4122 33.7093 68.4549 34.0027 68.5402 34.184C68.6256 34.3653 68.7749 34.488 68.9882 34.552C69.2016 34.616 69.5482 34.6587 70.0282 34.68V35C69.4736 34.968 68.6896 34.952 67.6762 34.952C66.7589 34.952 66.0762 34.968 65.6282 35V34.68C66.0122 34.6587 66.2896 34.616 66.4602 34.552C66.6416 34.488 66.7642 34.3653 66.8282 34.184C66.8922 34.0027 66.9242 33.7093 66.9242 33.304V26.968C66.9242 26.5627 66.8922 26.2693 66.8282 26.088C66.7642 25.9067 66.6416 25.784 66.4602 25.72C66.2896 25.656 66.0122 25.6133 65.6282 25.592V25.272L66.2042 25.288C66.8229 25.3093 67.3082 25.32 67.6602 25.32H68.6682H70.2682C71.5376 25.32 72.4389 25.304 72.9722 25.272ZM88.1588 25.592C87.7748 25.6133 87.4921 25.656 87.3108 25.72C87.1401 25.784 87.0228 25.9067 86.9588 26.088C86.8948 26.2693 86.8628 26.5627 86.8628 26.968V33.304C86.8628 33.7093 86.8948 34.0027 86.9588 34.184C87.0228 34.3653 87.1401 34.488 87.3108 34.552C87.4921 34.616 87.7748 34.6587 88.1588 34.68V35C87.7108 34.968 87.0281 34.952 86.1108 34.952C85.2468 34.952 84.5694 34.968 84.0788 35V34.68C84.4628 34.6587 84.7401 34.616 84.9108 34.552C85.0921 34.488 85.2148 34.3653 85.2788 34.184C85.3428 34.0027 85.3748 33.7093 85.3748 33.304V27.336L80.1748 33.608C80.1961 33.9067 80.2441 34.1307 80.3188 34.28C80.3934 34.4187 80.5161 34.5147 80.6868 34.568C80.8574 34.6213 81.1188 34.6587 81.4708 34.68V35C80.9801 34.968 80.3028 34.952 79.4388 34.952C78.5214 34.952 77.8388 34.968 77.3908 35V34.68C77.7748 34.6587 78.0521 34.616 78.2228 34.552C78.4041 34.488 78.5268 34.3653 78.5908 34.184C78.6548 34.0027 78.6868 33.7093 78.6868 33.304V26.968C78.6868 26.5627 78.6548 26.2693 78.5908 26.088C78.5268 25.9067 78.4041 25.784 78.2228 25.72C78.0521 25.656 77.7748 25.6133 77.3908 25.592V25.272C77.8388 25.304 78.5214 25.32 79.4388 25.32C80.2921 25.32 80.9694 25.304 81.4708 25.272V25.592C81.0868 25.6133 80.8041 25.656 80.6228 25.72C80.4521 25.784 80.3348 25.9067 80.2708 26.088C80.2068 26.2693 80.1748 26.5627 80.1748 26.968V33.064L85.3748 26.776C85.3641 26.4347 85.3214 26.1893 85.2468 26.04C85.1721 25.88 85.0494 25.7733 84.8788 25.72C84.7081 25.656 84.4414 25.6133 84.0788 25.592V25.272C84.5694 25.304 85.2468 25.32 86.1108 25.32C87.0281 25.32 87.7108 25.304 88.1588 25.272V25.592ZM97.5195 25.048C98.0422 25.048 98.4848 25.1387 98.8475 25.32C99.2102 25.4907 99.5888 25.7467 99.9835 26.088C100.101 26.184 100.202 26.232 100.287 26.232C100.501 26.232 100.639 25.912 100.703 25.272H101.071C101.029 25.912 101.007 27.032 101.007 28.632H100.639C100.533 28.0773 100.426 27.6667 100.319 27.4C100.213 27.1333 100.053 26.8613 99.8395 26.584C99.5408 26.1893 99.1835 25.8907 98.7675 25.688C98.3515 25.4747 97.9142 25.368 97.4555 25.368C96.8262 25.368 96.2768 25.56 95.8075 25.944C95.3488 26.328 94.9915 26.8827 94.7355 27.608C94.4795 28.3333 94.3515 29.1867 94.3515 30.168C94.3515 31.1707 94.4902 32.0293 94.7675 32.744C95.0555 33.448 95.4395 33.9867 95.9195 34.36C96.4102 34.7227 96.9595 34.904 97.5675 34.904C98.0368 34.904 98.4848 34.8027 98.9115 34.6C99.3488 34.3867 99.7168 34.0827 100.015 33.688C100.218 33.4107 100.367 33.1173 100.463 32.808C100.57 32.4987 100.666 32.056 100.751 31.48H101.119C101.119 33.1547 101.141 34.328 101.183 35H100.815C100.783 34.6693 100.735 34.4293 100.671 34.28C100.607 34.12 100.522 34.04 100.415 34.04C100.33 34.04 100.223 34.088 100.095 34.184C99.6902 34.5253 99.2955 34.7867 98.9115 34.968C98.5275 35.1387 98.0582 35.224 97.5035 35.224C96.5542 35.224 95.7222 35.032 95.0075 34.648C94.2928 34.2533 93.7382 33.6827 93.3435 32.936C92.9488 32.1787 92.7515 31.2773 92.7515 30.232C92.7515 29.208 92.9542 28.3067 93.3595 27.528C93.7648 26.7387 94.3302 26.1307 95.0555 25.704C95.7808 25.2667 96.6022 25.048 97.5195 25.048ZM114.921 25.272C114.846 25.976 114.809 26.6053 114.809 27.16C114.809 27.7147 114.825 28.152 114.857 28.472H114.489C114.425 27.7253 114.323 27.1547 114.185 26.76C114.046 26.3653 113.822 26.0827 113.513 25.912C113.203 25.7307 112.761 25.64 112.185 25.64H111.161V33.144C111.161 33.592 111.203 33.9173 111.289 34.12C111.374 34.3227 111.523 34.4613 111.737 34.536C111.95 34.6107 112.297 34.6587 112.777 34.68V35C112.222 34.968 111.438 34.952 110.425 34.952C109.358 34.952 108.569 34.968 108.057 35V34.68C108.537 34.6587 108.883 34.6107 109.097 34.536C109.31 34.4613 109.459 34.3227 109.545 34.12C109.63 33.9173 109.673 33.592 109.673 33.144V25.64H108.649C108.073 25.64 107.63 25.7307 107.321 25.912C107.011 26.0827 106.787 26.3653 106.649 26.76C106.51 27.1547 106.409 27.7253 106.345 28.472H105.977C106.009 28.1307 106.025 27.6933 106.025 27.16C106.025 26.6053 105.987 25.976 105.913 25.272C106.798 25.304 108.302 25.32 110.425 25.32C112.537 25.32 114.035 25.304 114.921 25.272ZM122.118 31.064V33.304C122.118 33.7093 122.15 34.0027 122.214 34.184C122.278 34.3653 122.396 34.488 122.566 34.552C122.748 34.616 123.03 34.6587 123.414 34.68V35C122.924 34.968 122.246 34.952 121.382 34.952C120.465 34.952 119.782 34.968 119.334 35V34.68C119.718 34.6587 119.996 34.616 120.166 34.552C120.348 34.488 120.47 34.3653 120.534 34.184C120.598 34.0027 120.63 33.7093 120.63 33.304V26.968C120.63 26.5627 120.598 26.2693 120.534 26.088C120.47 25.9067 120.348 25.784 120.166 25.72C119.996 25.656 119.718 25.6133 119.334 25.592V25.272C119.782 25.304 120.433 25.32 121.286 25.32L123.014 25.304C123.217 25.2933 123.446 25.288 123.702 25.288C124.844 25.288 125.718 25.5333 126.326 26.024C126.934 26.504 127.238 27.1493 127.238 27.96C127.238 28.472 127.11 28.9627 126.854 29.432C126.609 29.9013 126.182 30.2907 125.574 30.6C124.977 30.9093 124.182 31.064 123.19 31.064H122.118ZM123.302 25.592C122.972 25.592 122.721 25.6293 122.55 25.704C122.39 25.7787 122.278 25.912 122.214 26.104C122.15 26.296 122.118 26.584 122.118 26.968V30.744H123.03C124.012 30.744 124.689 30.5093 125.062 30.04C125.446 29.5707 125.638 28.936 125.638 28.136C125.638 27.272 125.457 26.632 125.094 26.216C124.732 25.8 124.134 25.592 123.302 25.592ZM142.303 25.592C141.919 25.6133 141.636 25.656 141.455 25.72C141.284 25.784 141.167 25.9067 141.103 26.088C141.039 26.2693 141.007 26.5627 141.007 26.968V33.304C141.007 33.7093 141.039 34.0027 141.103 34.184C141.167 34.3653 141.284 34.488 141.455 34.552C141.636 34.616 141.919 34.6587 142.303 34.68V35C141.855 34.968 141.172 34.952 140.255 34.952C139.391 34.952 138.713 34.968 138.223 35V34.68C138.607 34.6587 138.884 34.616 139.055 34.552C139.236 34.488 139.359 34.3653 139.423 34.184C139.487 34.0027 139.519 33.7093 139.519 33.304V27.336L134.319 33.608C134.34 33.9067 134.388 34.1307 134.463 34.28C134.537 34.4187 134.66 34.5147 134.831 34.568C135.001 34.6213 135.263 34.6587 135.615 34.68V35C135.124 34.968 134.447 34.952 133.583 34.952C132.665 34.952 131.983 34.968 131.535 35V34.68C131.919 34.6587 132.196 34.616 132.367 34.552C132.548 34.488 132.671 34.3653 132.735 34.184C132.799 34.0027 132.831 33.7093 132.831 33.304V26.968C132.831 26.5627 132.799 26.2693 132.735 26.088C132.671 25.9067 132.548 25.784 132.367 25.72C132.196 25.656 131.919 25.6133 131.535 25.592V25.272C131.983 25.304 132.665 25.32 133.583 25.32C134.436 25.32 135.113 25.304 135.615 25.272V25.592C135.231 25.6133 134.948 25.656 134.767 25.72C134.596 25.784 134.479 25.9067 134.415 26.088C134.351 26.2693 134.319 26.5627 134.319 26.968V33.064L139.519 26.776C139.508 26.4347 139.465 26.1893 139.391 26.04C139.316 25.88 139.193 25.7733 139.023 25.72C138.852 25.656 138.585 25.6133 138.223 25.592V25.272C138.713 25.304 139.391 25.32 140.255 25.32C141.172 25.32 141.855 25.304 142.303 25.272V25.592ZM149.628 31.064V33.304C149.628 33.7093 149.66 34.0027 149.724 34.184C149.788 34.3653 149.905 34.488 150.076 34.552C150.257 34.616 150.54 34.6587 150.924 34.68V35C150.433 34.968 149.756 34.952 148.892 34.952C147.975 34.952 147.292 34.968 146.844 35V34.68C147.228 34.6587 147.505 34.616 147.676 34.552C147.857 34.488 147.98 34.3653 148.044 34.184C148.108 34.0027 148.14 33.7093 148.14 33.304V26.968C148.14 26.5627 148.108 26.2693 148.044 26.088C147.98 25.9067 147.857 25.784 147.676 25.72C147.505 25.656 147.228 25.6133 146.844 25.592V25.272C147.292 25.304 147.943 25.32 148.796 25.32L150.524 25.304C150.727 25.2933 150.956 25.288 151.212 25.288C152.353 25.288 153.228 25.5333 153.836 26.024C154.444 26.504 154.748 27.1493 154.748 27.96C154.748 28.472 154.62 28.9627 154.364 29.432C154.119 29.9013 153.692 30.2907 153.084 30.6C152.487 30.9093 151.692 31.064 150.7 31.064H149.628ZM150.812 25.592C150.481 25.592 150.231 25.6293 150.06 25.704C149.9 25.7787 149.788 25.912 149.724 26.104C149.66 26.296 149.628 26.584 149.628 26.968V30.744H150.54C151.521 30.744 152.199 30.5093 152.572 30.04C152.956 29.5707 153.148 28.936 153.148 28.136C153.148 27.272 152.967 26.632 152.604 26.216C152.241 25.8 151.644 25.592 150.812 25.592ZM164.21 25.048C165.192 25.048 166.05 25.2453 166.786 25.64C167.533 26.024 168.109 26.5947 168.514 27.352C168.92 28.0987 169.122 28.9947 169.122 30.04C169.122 31.064 168.909 31.9707 168.482 32.76C168.066 33.5387 167.485 34.1467 166.738 34.584C165.992 35.0107 165.144 35.224 164.194 35.224C163.213 35.224 162.349 35.032 161.602 34.648C160.866 34.2533 160.296 33.6827 159.89 32.936C159.485 32.1787 159.282 31.2773 159.282 30.232C159.282 29.208 159.49 28.3067 159.906 27.528C160.333 26.7387 160.92 26.1307 161.666 25.704C162.413 25.2667 163.261 25.048 164.21 25.048ZM164.146 25.336C163.496 25.336 162.92 25.544 162.418 25.96C161.928 26.3653 161.549 26.936 161.282 27.672C161.016 28.3973 160.882 29.2293 160.882 30.168C160.882 31.1173 161.032 31.9547 161.33 32.68C161.629 33.4053 162.034 33.9653 162.546 34.36C163.058 34.744 163.629 34.936 164.258 34.936C164.909 34.936 165.48 34.7333 165.97 34.328C166.472 33.912 166.856 33.3413 167.122 32.616C167.389 31.88 167.522 31.0427 167.522 30.104C167.522 29.1547 167.373 28.3173 167.074 27.592C166.776 26.8667 166.37 26.312 165.858 25.928C165.346 25.5333 164.776 25.336 164.146 25.336ZM178.849 29.816C179.958 29.9547 180.753 30.2587 181.233 30.728C181.713 31.1867 181.953 31.736 181.953 32.376C181.953 32.888 181.804 33.3413 181.505 33.736C181.217 34.1307 180.796 34.44 180.241 34.664C179.686 34.888 179.03 35 178.273 35C178.006 35 177.777 34.9947 177.585 34.984C176.924 34.9627 176.289 34.952 175.681 34.952C174.806 34.952 174.145 34.968 173.697 35V34.68C174.081 34.6587 174.358 34.616 174.529 34.552C174.71 34.488 174.833 34.3653 174.897 34.184C174.961 34.0027 174.993 33.7093 174.993 33.304V26.968C174.993 26.5627 174.961 26.2693 174.897 26.088C174.833 25.9067 174.71 25.784 174.529 25.72C174.358 25.656 174.081 25.6133 173.697 25.592V25.272C174.145 25.304 174.796 25.32 175.649 25.32L177.281 25.304C177.462 25.2933 177.67 25.288 177.905 25.288C178.94 25.288 179.734 25.4907 180.289 25.896C180.844 26.2907 181.121 26.8187 181.121 27.48C181.121 27.992 180.94 28.4507 180.577 28.856C180.214 29.2613 179.638 29.5707 178.849 29.784V29.816ZM177.505 25.592C177.217 25.592 176.998 25.6293 176.849 25.704C176.71 25.7787 176.614 25.912 176.561 26.104C176.508 26.296 176.481 26.584 176.481 26.968V29.784H177.393C178.214 29.784 178.785 29.5973 179.105 29.224C179.425 28.8507 179.585 28.328 179.585 27.656C179.585 26.9627 179.42 26.4453 179.089 26.104C178.758 25.7627 178.23 25.592 177.505 25.592ZM177.521 34.632C178.492 34.632 179.206 34.44 179.665 34.056C180.124 33.6613 180.353 33.08 180.353 32.312C180.353 31.5653 180.14 31.0053 179.713 30.632C179.286 30.248 178.604 30.056 177.665 30.056H176.481V33.304C176.481 33.688 176.508 33.9707 176.561 34.152C176.614 34.3333 176.71 34.4613 176.849 34.536C176.998 34.6 177.222 34.632 177.521 34.632ZM194.572 33.656C194.86 34.3173 195.228 34.6587 195.676 34.68V35C195.249 34.968 194.679 34.952 193.964 34.952C193.047 34.952 192.364 34.968 191.916 35V34.68C192.311 34.6587 192.599 34.6053 192.78 34.52C192.972 34.4347 193.068 34.2907 193.068 34.088C193.068 33.9173 192.993 33.6667 192.844 33.336L192.028 31.512H188.14L187.596 32.712C187.415 33.128 187.324 33.4693 187.324 33.736C187.324 34.0133 187.42 34.232 187.612 34.392C187.815 34.5413 188.135 34.6373 188.572 34.68V35C188.252 34.968 187.767 34.952 187.116 34.952C186.465 34.952 186.001 34.968 185.724 35V34.68C186.012 34.6053 186.257 34.4453 186.46 34.2C186.663 33.944 186.855 33.608 187.036 33.192L190.572 25.192H190.828L194.572 33.656ZM191.9 31.192L190.092 27.128L188.268 31.192H191.9ZM207.665 25.272C207.59 25.976 207.553 26.6053 207.553 27.16C207.553 27.7147 207.569 28.152 207.601 28.472H207.233C207.169 27.7253 207.067 27.1547 206.929 26.76C206.79 26.3653 206.566 26.0827 206.257 25.912C205.947 25.7307 205.505 25.64 204.929 25.64H203.905V33.144C203.905 33.592 203.947 33.9173 204.033 34.12C204.118 34.3227 204.267 34.4613 204.481 34.536C204.694 34.6107 205.041 34.6587 205.521 34.68V35C204.966 34.968 204.182 34.952 203.169 34.952C202.102 34.952 201.313 34.968 200.801 35V34.68C201.281 34.6587 201.627 34.6107 201.841 34.536C202.054 34.4613 202.203 34.3227 202.289 34.12C202.374 33.9173 202.417 33.592 202.417 33.144V25.64H201.393C200.817 25.64 200.374 25.7307 200.065 25.912C199.755 26.0827 199.531 26.3653 199.393 26.76C199.254 27.1547 199.153 27.7253 199.089 28.472H198.721C198.753 28.1307 198.769 27.6933 198.769 27.16C198.769 26.6053 198.731 25.976 198.657 25.272C199.542 25.304 201.046 25.32 203.169 25.32C205.281 25.32 206.779 25.304 207.665 25.272ZM216.094 29.704C217.524 29.7147 218.526 29.9653 219.102 30.456C219.689 30.9467 219.982 31.56 219.982 32.296C219.982 33.128 219.662 33.784 219.022 34.264C218.382 34.744 217.47 34.984 216.286 34.984C216.052 34.984 215.844 34.9787 215.662 34.968L214.03 34.952C213.177 34.952 212.526 34.968 212.078 35V34.68C212.462 34.6587 212.74 34.616 212.91 34.552C213.092 34.488 213.214 34.3653 213.278 34.184C213.342 34.0027 213.374 33.7093 213.374 33.304V26.968C213.374 26.5627 213.342 26.2693 213.278 26.088C213.214 25.9067 213.092 25.784 212.91 25.72C212.74 25.656 212.462 25.6133 212.078 25.592V25.272C212.526 25.304 213.209 25.32 214.126 25.32C214.98 25.32 215.657 25.304 216.158 25.272V25.592C215.774 25.6133 215.492 25.656 215.31 25.72C215.14 25.784 215.022 25.9067 214.958 26.088C214.894 26.2693 214.862 26.5627 214.862 26.968V29.688L216.094 29.704ZM215.886 34.68C216.772 34.68 217.406 34.4827 217.79 34.088C218.185 33.6933 218.382 33.112 218.382 32.344C218.382 31.608 218.206 31.0373 217.854 30.632C217.502 30.216 216.862 30.008 215.934 30.008H214.862V33.304C214.862 33.688 214.889 33.976 214.942 34.168C214.996 34.36 215.092 34.4933 215.23 34.568C215.38 34.6427 215.598 34.68 215.886 34.68ZM229.301 25.048C229.823 25.048 230.266 25.1387 230.629 25.32C230.991 25.4907 231.37 25.7467 231.765 26.088C231.882 26.184 231.983 26.232 232.069 26.232C232.282 26.232 232.421 25.912 232.485 25.272H232.853C232.81 25.912 232.789 27.032 232.789 28.632H232.421C232.314 28.0773 232.207 27.6667 232.101 27.4C231.994 27.1333 231.834 26.8613 231.621 26.584C231.322 26.1893 230.965 25.8907 230.549 25.688C230.133 25.4747 229.695 25.368 229.237 25.368C228.607 25.368 228.058 25.56 227.589 25.944C227.13 26.328 226.773 26.8827 226.517 27.608C226.261 28.3333 226.133 29.1867 226.133 30.168C226.133 31.1707 226.271 32.0293 226.549 32.744C226.837 33.448 227.221 33.9867 227.701 34.36C228.191 34.7227 228.741 34.904 229.349 34.904C229.818 34.904 230.266 34.8027 230.693 34.6C231.13 34.3867 231.498 34.0827 231.797 33.688C231.999 33.4107 232.149 33.1173 232.245 32.808C232.351 32.4987 232.447 32.056 232.533 31.48H232.901C232.901 33.1547 232.922 34.328 232.965 35H232.597C232.565 34.6693 232.517 34.4293 232.453 34.28C232.389 34.12 232.303 34.04 232.197 34.04C232.111 34.04 232.005 34.088 231.877 34.184C231.471 34.5253 231.077 34.7867 230.693 34.968C230.309 35.1387 229.839 35.224 229.285 35.224C228.335 35.224 227.503 35.032 226.789 34.648C226.074 34.2533 225.519 33.6827 225.125 32.936C224.73 32.1787 224.533 31.2773 224.533 30.232C224.533 29.208 224.735 28.3067 225.141 27.528C225.546 26.7387 226.111 26.1307 226.837 25.704C227.562 25.2667 228.383 25.048 229.301 25.048ZM246.59 25.592C246.206 25.6133 245.923 25.656 245.742 25.72C245.571 25.784 245.454 25.9067 245.39 26.088C245.326 26.2693 245.294 26.5627 245.294 26.968V33.304C245.294 33.7093 245.326 34.0027 245.39 34.184C245.454 34.3653 245.571 34.488 245.742 34.552C245.923 34.616 246.206 34.6587 246.59 34.68V35C246.142 34.968 245.459 34.952 244.542 34.952C243.689 34.952 243.011 34.968 242.51 35V34.68C242.894 34.6587 243.171 34.616 243.342 34.552C243.523 34.488 243.646 34.3653 243.71 34.184C243.774 34.0027 243.806 33.7093 243.806 33.304V30.584H242.734C242.158 30.584 241.715 30.6853 241.406 30.888C241.107 31.08 240.889 31.4693 240.75 32.056L240.27 34.008C240.067 34.8187 239.518 35.224 238.622 35.224C238.259 35.224 237.945 35.1493 237.678 35C237.422 34.84 237.193 34.616 236.99 34.328L237.214 34.12C237.534 34.4827 237.827 34.664 238.094 34.664C238.254 34.664 238.382 34.5893 238.478 34.44C238.585 34.28 238.681 34.0133 238.766 33.64L239.102 32.232C239.241 31.6667 239.475 31.2613 239.806 31.016C240.137 30.7707 240.59 30.6053 241.166 30.52C241.315 30.4987 241.422 30.488 241.486 30.488C240.483 30.3387 239.763 30.0187 239.326 29.528C238.899 29.0267 238.686 28.488 238.686 27.912C238.686 27.0907 239.006 26.4507 239.646 25.992C240.286 25.5227 241.198 25.288 242.382 25.288C242.617 25.288 242.825 25.2933 243.006 25.304L244.638 25.32C245.491 25.32 246.142 25.304 246.59 25.272V25.592ZM240.286 27.928C240.286 28.664 240.462 29.24 240.814 29.656C241.166 30.0613 241.806 30.264 242.734 30.264H243.806V26.968C243.806 26.584 243.779 26.296 243.726 26.104C243.673 25.912 243.571 25.7787 243.422 25.704C243.283 25.6293 243.07 25.592 242.782 25.592C241.897 25.592 241.257 25.7893 240.862 26.184C240.478 26.5787 240.286 27.16 240.286 27.928Z" fill="black"/>
</svg>
