<svg width="511" height="633" viewBox="0 0 511 633" fill="none" xmlns="http://www.w3.org/2000/svg">
<rect width="511" height="633" rx="82" fill="#D9D9D9"/>
<path d="M154.184 89.136V93.456C154.184 94.064 154.248 94.504 154.376 94.776C154.504 95.048 154.728 95.232 155.048 95.328C155.368 95.424 155.888 95.488 156.608 95.52V96C155.776 95.952 154.6 95.928 153.08 95.928C151.704 95.928 150.68 95.952 150.008 96V95.52C150.584 95.488 151 95.424 151.256 95.328C151.528 95.232 151.712 95.048 151.808 94.776C151.904 94.504 151.952 94.064 151.952 93.456V81.552C151.952 80.944 151.904 80.504 151.808 80.232C151.712 79.96 151.528 79.776 151.256 79.68C151 79.584 150.584 79.52 150.008 79.488V79.008C150.68 79.056 151.656 79.08 152.936 79.08L155.528 79.056C155.832 79.04 156.176 79.032 156.56 79.032C158.432 79.032 159.864 79.464 160.856 80.328C161.848 81.176 162.344 82.32 162.344 83.76C162.344 84.64 162.144 85.488 161.744 86.304C161.36 87.104 160.696 87.776 159.752 88.32C158.824 88.864 157.584 89.136 156.032 89.136H154.184ZM155.96 79.488C155.464 79.488 155.088 79.544 154.832 79.656C154.592 79.768 154.424 79.968 154.328 80.256C154.232 80.544 154.184 80.976 154.184 81.552V88.656H155.792C157.36 88.656 158.44 88.24 159.032 87.408C159.64 86.56 159.944 85.432 159.944 84.024C159.944 82.472 159.632 81.328 159.008 80.592C158.4 79.856 157.384 79.488 155.96 79.488ZM180.655 93.168C180.655 94 180.711 94.944 180.823 96C179.783 95.952 178.031 95.928 175.567 95.928C172.607 95.928 170.367 95.952 168.847 96V95.52C169.423 95.488 169.839 95.424 170.095 95.328C170.367 95.232 170.551 95.048 170.647 94.776C170.743 94.504 170.791 94.064 170.791 93.456V83.952C170.791 83.344 170.743 82.904 170.647 82.632C170.551 82.36 170.367 82.176 170.095 82.08C169.839 81.984 169.423 81.92 168.847 81.888V81.408C170.367 81.456 172.607 81.48 175.567 81.48C177.807 81.48 179.399 81.456 180.343 81.408C180.231 82.368 180.175 83.232 180.175 84C180.175 84.624 180.199 85.12 180.247 85.488H179.695C179.583 84.176 179.303 83.264 178.855 82.752C178.423 82.224 177.711 81.96 176.719 81.96H174.967C174.391 81.96 173.967 82.008 173.695 82.104C173.439 82.184 173.263 82.36 173.167 82.632C173.071 82.904 173.023 83.344 173.023 83.952V88.416H175.015C175.527 88.416 175.919 88.288 176.191 88.032C176.463 87.76 176.647 87.472 176.743 87.168C176.839 86.848 176.927 86.448 177.007 85.968H177.559C177.511 86.512 177.487 87.104 177.487 87.744V88.656C177.487 89.28 177.535 90.176 177.631 91.344H177.079C176.983 90.576 176.799 89.976 176.527 89.544C176.255 89.112 175.751 88.896 175.015 88.896H173.023V93.456C173.023 94.064 173.071 94.504 173.167 94.776C173.263 95.048 173.439 95.232 173.695 95.328C173.967 95.408 174.391 95.448 174.967 95.448H176.719C177.519 95.448 178.151 95.32 178.615 95.064C179.079 94.808 179.431 94.4 179.671 93.84C179.911 93.264 180.079 92.464 180.175 91.44H180.727C180.679 91.872 180.655 92.448 180.655 93.168ZM198.936 81.408C198.824 82.544 198.768 83.568 198.768 84.48C198.768 85.28 198.792 85.936 198.84 86.448H198.288C198.16 85.216 198 84.304 197.808 83.712C197.616 83.104 197.28 82.664 196.8 82.392C196.32 82.104 195.584 81.96 194.592 81.96H194.04C193.464 81.96 193.04 82.008 192.768 82.104C192.512 82.184 192.336 82.36 192.24 82.632C192.144 82.904 192.096 83.344 192.096 83.952V93.456C192.096 94.064 192.16 94.504 192.288 94.776C192.416 95.048 192.64 95.232 192.96 95.328C193.28 95.424 193.8 95.488 194.52 95.52V96C193.688 95.952 192.512 95.928 190.992 95.928C189.616 95.928 188.592 95.952 187.92 96V95.52C188.496 95.488 188.912 95.424 189.168 95.328C189.44 95.232 189.624 95.048 189.72 94.776C189.816 94.504 189.864 94.064 189.864 93.456V83.952C189.864 83.344 189.816 82.904 189.72 82.632C189.624 82.36 189.44 82.176 189.168 82.08C188.912 81.984 188.496 81.92 187.92 81.888V81.408L188.784 81.432C189.712 81.464 190.44 81.48 190.968 81.48H192.48H194.88C196.784 81.48 198.136 81.456 198.936 81.408ZM217.372 93.168C217.372 94 217.428 94.944 217.54 96C216.5 95.952 214.748 95.928 212.284 95.928C209.324 95.928 207.084 95.952 205.564 96V95.52C206.14 95.488 206.556 95.424 206.812 95.328C207.084 95.232 207.268 95.048 207.364 94.776C207.46 94.504 207.508 94.064 207.508 93.456V83.952C207.508 83.344 207.46 82.904 207.364 82.632C207.268 82.36 207.084 82.176 206.812 82.08C206.556 81.984 206.14 81.92 205.564 81.888V81.408C207.084 81.456 209.324 81.48 212.284 81.48C214.524 81.48 216.116 81.456 217.06 81.408C216.948 82.368 216.892 83.232 216.892 84C216.892 84.624 216.916 85.12 216.964 85.488H216.412C216.3 84.176 216.02 83.264 215.572 82.752C215.14 82.224 214.428 81.96 213.436 81.96H211.684C211.108 81.96 210.684 82.008 210.412 82.104C210.156 82.184 209.98 82.36 209.884 82.632C209.788 82.904 209.74 83.344 209.74 83.952V88.416H211.732C212.244 88.416 212.636 88.288 212.908 88.032C213.18 87.76 213.364 87.472 213.46 87.168C213.556 86.848 213.644 86.448 213.724 85.968H214.276C214.228 86.512 214.204 87.104 214.204 87.744V88.656C214.204 89.28 214.252 90.176 214.348 91.344H213.796C213.7 90.576 213.516 89.976 213.244 89.544C212.972 89.112 212.468 88.896 211.732 88.896H209.74V93.456C209.74 94.064 209.788 94.504 209.884 94.776C209.98 95.048 210.156 95.232 210.412 95.328C210.684 95.408 211.108 95.448 211.684 95.448H213.436C214.236 95.448 214.868 95.32 215.332 95.064C215.796 94.808 216.148 94.4 216.388 93.84C216.628 93.264 216.796 92.464 216.892 91.44H217.444C217.396 91.872 217.372 92.448 217.372 93.168ZM232.078 81.072C232.862 81.072 233.526 81.208 234.07 81.48C234.614 81.736 235.182 82.12 235.774 82.632C235.95 82.776 236.102 82.848 236.23 82.848C236.55 82.848 236.758 82.368 236.854 81.408H237.406C237.342 82.368 237.31 84.048 237.31 86.448H236.758C236.598 85.616 236.438 85 236.278 84.6C236.118 84.2 235.878 83.792 235.558 83.376C235.11 82.784 234.574 82.336 233.95 82.032C233.326 81.712 232.67 81.552 231.982 81.552C231.038 81.552 230.214 81.84 229.51 82.416C228.822 82.992 228.286 83.824 227.902 84.912C227.518 86 227.326 87.28 227.326 88.752C227.326 90.256 227.534 91.544 227.95 92.616C228.382 93.672 228.958 94.48 229.678 95.04C230.414 95.584 231.238 95.856 232.15 95.856C232.854 95.856 233.526 95.704 234.166 95.4C234.822 95.08 235.374 94.624 235.822 94.032C236.126 93.616 236.35 93.176 236.494 92.712C236.654 92.248 236.798 91.584 236.926 90.72H237.478C237.478 93.232 237.51 94.992 237.574 96H237.022C236.974 95.504 236.902 95.144 236.806 94.92C236.71 94.68 236.582 94.56 236.422 94.56C236.294 94.56 236.134 94.632 235.942 94.776C235.334 95.288 234.742 95.68 234.166 95.952C233.59 96.208 232.886 96.336 232.054 96.336C230.63 96.336 229.382 96.048 228.31 95.472C227.238 94.88 226.406 94.024 225.814 92.904C225.222 91.768 224.926 90.416 224.926 88.848C224.926 87.312 225.23 85.96 225.838 84.792C226.446 83.608 227.294 82.696 228.382 82.056C229.47 81.4 230.702 81.072 232.078 81.072ZM258.18 81.408C258.068 82.464 258.012 83.408 258.012 84.24C258.012 85.072 258.036 85.728 258.084 86.208H257.532C257.436 85.088 257.284 84.232 257.076 83.64C256.868 83.048 256.532 82.624 256.068 82.368C255.604 82.096 254.94 81.96 254.076 81.96H252.54V93.216C252.54 93.888 252.604 94.376 252.732 94.68C252.86 94.984 253.084 95.192 253.404 95.304C253.724 95.416 254.244 95.488 254.964 95.52V96C254.132 95.952 252.956 95.928 251.436 95.928C249.836 95.928 248.652 95.952 247.884 96V95.52C248.604 95.488 249.124 95.416 249.444 95.304C249.764 95.192 249.988 94.984 250.116 94.68C250.244 94.376 250.308 93.888 250.308 93.216V81.96H248.772C247.908 81.96 247.244 82.096 246.78 82.368C246.316 82.624 245.98 83.048 245.772 83.64C245.564 84.232 245.412 85.088 245.316 86.208H244.764C244.812 85.696 244.836 85.04 244.836 84.24C244.836 83.408 244.78 82.464 244.668 81.408C245.996 81.456 248.252 81.48 251.436 81.48C254.604 81.48 256.852 81.456 258.18 81.408ZM268.976 90.096V93.456C268.976 94.064 269.024 94.504 269.12 94.776C269.216 95.048 269.392 95.232 269.648 95.328C269.92 95.424 270.344 95.488 270.92 95.52V96C270.184 95.952 269.168 95.928 267.872 95.928C266.496 95.928 265.472 95.952 264.8 96V95.52C265.376 95.488 265.792 95.424 266.048 95.328C266.32 95.232 266.504 95.048 266.6 94.776C266.696 94.504 266.744 94.064 266.744 93.456V83.952C266.744 83.344 266.696 82.904 266.6 82.632C266.504 82.36 266.32 82.176 266.048 82.08C265.792 81.984 265.376 81.92 264.8 81.888V81.408C265.472 81.456 266.448 81.48 267.728 81.48L270.32 81.456C270.624 81.44 270.968 81.432 271.352 81.432C273.064 81.432 274.376 81.8 275.288 82.536C276.2 83.256 276.656 84.224 276.656 85.44C276.656 86.208 276.464 86.944 276.08 87.648C275.712 88.352 275.072 88.936 274.16 89.4C273.264 89.864 272.072 90.096 270.584 90.096H268.976ZM270.752 81.888C270.256 81.888 269.88 81.944 269.624 82.056C269.384 82.168 269.216 82.368 269.12 82.656C269.024 82.944 268.976 83.376 268.976 83.952V89.616H270.344C271.816 89.616 272.832 89.264 273.392 88.56C273.968 87.856 274.256 86.904 274.256 85.704C274.256 84.408 273.984 83.448 273.44 82.824C272.896 82.2 272 81.888 270.752 81.888ZM294.355 93.984C294.787 94.976 295.339 95.488 296.011 95.52V96C295.371 95.952 294.515 95.928 293.443 95.928C292.067 95.928 291.043 95.952 290.371 96V95.52C290.963 95.488 291.395 95.408 291.667 95.28C291.955 95.152 292.099 94.936 292.099 94.632C292.099 94.376 291.987 94 291.763 93.504L290.539 90.768H284.707L283.891 92.568C283.619 93.192 283.483 93.704 283.483 94.104C283.483 94.52 283.627 94.848 283.915 95.088C284.219 95.312 284.699 95.456 285.355 95.52V96C284.875 95.952 284.147 95.928 283.171 95.928C282.195 95.928 281.499 95.952 281.083 96V95.52C281.515 95.408 281.883 95.168 282.187 94.8C282.491 94.416 282.779 93.912 283.051 93.288L288.355 81.288H288.739L294.355 93.984ZM290.347 90.288L287.635 84.192L284.899 90.288H290.347ZM317.064 81.888C316.488 81.92 316.064 81.984 315.792 82.08C315.536 82.176 315.36 82.36 315.264 82.632C315.168 82.904 315.12 83.344 315.12 83.952V93.456C315.12 94.064 315.168 94.512 315.264 94.8C315.36 95.072 315.544 95.264 315.816 95.376C316.088 95.472 316.504 95.52 317.064 95.52H317.808C317.696 96.576 317.64 97.52 317.64 98.352C317.64 98.992 317.664 99.488 317.712 99.84H317.16C317.048 98.8 316.904 98.016 316.728 97.488C316.552 96.976 316.248 96.6 315.816 96.36C315.4 96.12 314.776 96 313.944 96H309.624L307.8 95.976C306.552 95.944 305.56 95.928 304.824 95.928C303.448 95.928 302.424 95.952 301.752 96V95.52C302.328 95.488 302.744 95.424 303 95.328C303.272 95.232 303.456 95.048 303.552 94.776C303.648 94.504 303.696 94.064 303.696 93.456V83.952C303.696 83.344 303.648 82.904 303.552 82.632C303.456 82.36 303.272 82.176 303 82.08C302.744 81.984 302.328 81.92 301.752 81.888V81.408C302.424 81.456 303.448 81.48 304.824 81.48C306.104 81.48 307.12 81.456 307.872 81.408V81.888C307.296 81.92 306.872 81.984 306.6 82.08C306.344 82.176 306.168 82.36 306.072 82.632C305.976 82.904 305.928 83.344 305.928 83.952V93.456C305.928 94.064 305.976 94.512 306.072 94.8C306.168 95.072 306.352 95.264 306.624 95.376C306.896 95.472 307.312 95.52 307.872 95.52H310.944C311.504 95.52 311.92 95.472 312.192 95.376C312.464 95.264 312.648 95.072 312.744 94.8C312.84 94.512 312.888 94.064 312.888 93.456V83.952C312.888 83.344 312.84 82.904 312.744 82.632C312.648 82.36 312.464 82.176 312.192 82.08C311.936 81.984 311.52 81.92 310.944 81.888V81.408C311.68 81.456 312.696 81.48 313.992 81.48C315.368 81.48 316.392 81.456 317.064 81.408V81.888ZM340.282 81.888C339.706 81.92 339.282 81.984 339.01 82.08C338.754 82.176 338.578 82.36 338.482 82.632C338.386 82.904 338.338 83.344 338.338 83.952V93.456C338.338 94.064 338.386 94.504 338.482 94.776C338.578 95.048 338.754 95.232 339.01 95.328C339.282 95.424 339.706 95.488 340.282 95.52V96C339.61 95.952 338.586 95.928 337.21 95.928C335.914 95.928 334.898 95.952 334.162 96V95.52C334.738 95.488 335.154 95.424 335.41 95.328C335.682 95.232 335.866 95.048 335.962 94.776C336.058 94.504 336.106 94.064 336.106 93.456V84.504L328.306 93.912C328.338 94.36 328.41 94.696 328.522 94.92C328.634 95.128 328.818 95.272 329.074 95.352C329.33 95.432 329.722 95.488 330.25 95.52V96C329.514 95.952 328.498 95.928 327.202 95.928C325.826 95.928 324.802 95.952 324.13 96V95.52C324.706 95.488 325.122 95.424 325.378 95.328C325.65 95.232 325.834 95.048 325.93 94.776C326.026 94.504 326.074 94.064 326.074 93.456V83.952C326.074 83.344 326.026 82.904 325.93 82.632C325.834 82.36 325.65 82.176 325.378 82.08C325.122 81.984 324.706 81.92 324.13 81.888V81.408C324.802 81.456 325.826 81.48 327.202 81.48C328.482 81.48 329.498 81.456 330.25 81.408V81.888C329.674 81.92 329.25 81.984 328.978 82.08C328.722 82.176 328.546 82.36 328.45 82.632C328.354 82.904 328.306 83.344 328.306 83.952V93.096L336.106 83.664C336.09 83.152 336.026 82.784 335.914 82.56C335.802 82.32 335.618 82.16 335.362 82.08C335.106 81.984 334.706 81.92 334.162 81.888V81.408C334.898 81.456 335.914 81.48 337.21 81.48C338.586 81.48 339.61 81.456 340.282 81.408V81.888ZM360.246 81.888C359.67 81.92 359.246 81.984 358.974 82.08C358.718 82.176 358.542 82.36 358.446 82.632C358.35 82.904 358.302 83.344 358.302 83.952V93.456C358.302 94.064 358.35 94.504 358.446 94.776C358.542 95.048 358.718 95.232 358.974 95.328C359.246 95.424 359.67 95.488 360.246 95.52V96C359.574 95.952 358.55 95.928 357.174 95.928C355.894 95.928 354.878 95.952 354.126 96V95.52C354.702 95.488 355.118 95.424 355.374 95.328C355.646 95.232 355.83 95.048 355.926 94.776C356.022 94.504 356.07 94.064 356.07 93.456V89.376H354.462C353.598 89.376 352.934 89.528 352.47 89.832C352.022 90.12 351.694 90.704 351.486 91.584L350.766 94.512C350.462 95.728 349.638 96.336 348.294 96.336C347.75 96.336 347.278 96.224 346.878 96C346.494 95.76 346.15 95.424 345.846 94.992L346.182 94.68C346.662 95.224 347.102 95.496 347.502 95.496C347.742 95.496 347.934 95.384 348.078 95.16C348.238 94.92 348.382 94.52 348.51 93.96L349.014 91.848C349.222 91 349.574 90.392 350.07 90.024C350.566 89.656 351.246 89.408 352.11 89.28C352.334 89.248 352.494 89.232 352.59 89.232C351.086 89.008 350.006 88.528 349.35 87.792C348.71 87.04 348.39 86.232 348.39 85.368C348.39 84.136 348.87 83.176 349.83 82.488C350.79 81.784 352.158 81.432 353.934 81.432C354.286 81.432 354.598 81.44 354.87 81.456L357.318 81.48C358.598 81.48 359.574 81.456 360.246 81.408V81.888ZM350.79 85.392C350.79 86.496 351.054 87.36 351.582 87.984C352.11 88.592 353.07 88.896 354.462 88.896H356.07V83.952C356.07 83.376 356.03 82.944 355.95 82.656C355.87 82.368 355.718 82.168 355.494 82.056C355.286 81.944 354.966 81.888 354.534 81.888C353.206 81.888 352.246 82.184 351.654 82.776C351.078 83.368 350.79 84.24 350.79 85.392Z" fill="black"/>
</svg>
